<mxfile host="app.diagrams.net" agent="Mozilla/5.0 (Windows NT 10.0; Win64; x64) AppleWebKit/537.36 (KHTML, like Gecko) Chrome/134.0.0.0 Safari/537.36" version="26.0.10">
  <diagram id="C5RBs43oDa-KdzZeNtuy" name="Page-1">
    <mxGraphModel dx="1103" dy="692" grid="1" gridSize="10" guides="1" tooltips="1" connect="1" arrows="1" fold="1" page="1" pageScale="1" pageWidth="827" pageHeight="1169" math="0" shadow="0">
      <root>
        <mxCell id="WIyWlLk6GJQsqaUBKTNV-0" />
        <mxCell id="WIyWlLk6GJQsqaUBKTNV-1" parent="WIyWlLk6GJQsqaUBKTNV-0" />
        <mxCell id="znDU5PP19PXRxrPxOCtm-0" value="スタンプ保存データ&lt;br&gt;ベース&lt;br&gt;(SQLite)" style="rounded=1;whiteSpace=wrap;html=1;" vertex="1" parent="WIyWlLk6GJQsqaUBKTNV-1">
          <mxGeometry x="290" y="85" width="135" height="70" as="geometry" />
        </mxCell>
        <mxCell id="znDU5PP19PXRxrPxOCtm-17" value="&lt;div style=&quot;text-align: center;&quot;&gt;&lt;span style=&quot;background-color: transparent; color: light-dark(rgb(0, 0, 0), rgb(255, 255, 255));&quot;&gt;・StampRepository&amp;nbsp; &amp;nbsp;&amp;nbsp;&lt;/span&gt;&lt;/div&gt;&lt;div&gt;-------------------------------------------- ・スタンプラリーの初期化&lt;/div&gt;&lt;div&gt;・全スタンプリストの取得&lt;/div&gt;&lt;div&gt;・指定IDのスタンプ取得&amp;nbsp; &amp;nbsp;&lt;br&gt;&lt;div&gt;・収集状態更新&lt;/div&gt;&lt;div&gt;・各スタンプの状態読込&lt;/div&gt;&lt;div&gt;・各スタンプの状態保存&lt;/div&gt;&lt;div&gt;&lt;br&gt;&lt;/div&gt;&lt;/div&gt;" style="whiteSpace=wrap;html=1;aspect=fixed;align=left;" vertex="1" parent="WIyWlLk6GJQsqaUBKTNV-1">
          <mxGeometry x="540" y="30" width="180" height="180" as="geometry" />
        </mxCell>
        <mxCell id="znDU5PP19PXRxrPxOCtm-18" value="・&amp;nbsp;IkebukuroStampActivity&amp;nbsp;&lt;div&gt;--------------------------------------------&lt;/div&gt;&lt;div&gt;・スタンプラリーの描画を行う&lt;/div&gt;&lt;div&gt;&lt;span style=&quot;background-color: transparent; color: light-dark(rgb(0, 0, 0), rgb(255, 255, 255));&quot;&gt;・&lt;/span&gt;&lt;span style=&quot;background-color: transparent;&quot;&gt;&amp;nbsp;LocationService起動&lt;/span&gt;&lt;/div&gt;&lt;div&gt;//常にバックグラウンド&lt;br&gt;で動いているLocationServiceから&lt;br&gt;常に位置情報を取得し、&lt;br&gt;条件文で&lt;/div&gt;&lt;div&gt;スタンプラリーの緯度経度&lt;br&gt;&lt;/div&gt;&lt;div&gt;&lt;br&gt;&lt;/div&gt;" style="rounded=0;whiteSpace=wrap;html=1;" vertex="1" parent="WIyWlLk6GJQsqaUBKTNV-1">
          <mxGeometry x="430" y="270" width="180" height="190" as="geometry" />
        </mxCell>
        <mxCell id="znDU5PP19PXRxrPxOCtm-20" value="" style="endArrow=classic;html=1;rounded=0;" edge="1" parent="WIyWlLk6GJQsqaUBKTNV-1" source="znDU5PP19PXRxrPxOCtm-0" target="znDU5PP19PXRxrPxOCtm-17">
          <mxGeometry width="50" height="50" relative="1" as="geometry">
            <mxPoint x="600" y="280" as="sourcePoint" />
            <mxPoint x="650" y="230" as="targetPoint" />
          </mxGeometry>
        </mxCell>
        <mxCell id="znDU5PP19PXRxrPxOCtm-22" value="反映する" style="text;html=1;align=center;verticalAlign=middle;whiteSpace=wrap;rounded=0;" vertex="1" parent="WIyWlLk6GJQsqaUBKTNV-1">
          <mxGeometry x="440" y="70" width="80" height="30" as="geometry" />
        </mxCell>
        <mxCell id="znDU5PP19PXRxrPxOCtm-23" value="" style="endArrow=classic;html=1;rounded=0;exitX=0;exitY=0.25;exitDx=0;exitDy=0;" edge="1" parent="WIyWlLk6GJQsqaUBKTNV-1" source="znDU5PP19PXRxrPxOCtm-18" target="znDU5PP19PXRxrPxOCtm-0">
          <mxGeometry width="50" height="50" relative="1" as="geometry">
            <mxPoint x="600" y="280" as="sourcePoint" />
            <mxPoint x="650" y="230" as="targetPoint" />
          </mxGeometry>
        </mxCell>
        <mxCell id="znDU5PP19PXRxrPxOCtm-27" value="保存する" style="text;html=1;align=center;verticalAlign=middle;whiteSpace=wrap;rounded=0;" vertex="1" parent="WIyWlLk6GJQsqaUBKTNV-1">
          <mxGeometry x="280" y="230" width="120" height="50" as="geometry" />
        </mxCell>
        <mxCell id="znDU5PP19PXRxrPxOCtm-28" value="" style="endArrow=classic;html=1;rounded=0;exitX=0.821;exitY=0.989;exitDx=0;exitDy=0;exitPerimeter=0;entryX=0.988;entryY=0.56;entryDx=0;entryDy=0;entryPerimeter=0;" edge="1" parent="WIyWlLk6GJQsqaUBKTNV-1" source="znDU5PP19PXRxrPxOCtm-17" target="znDU5PP19PXRxrPxOCtm-18">
          <mxGeometry width="50" height="50" relative="1" as="geometry">
            <mxPoint x="600" y="280" as="sourcePoint" />
            <mxPoint x="650" y="230" as="targetPoint" />
          </mxGeometry>
        </mxCell>
        <mxCell id="znDU5PP19PXRxrPxOCtm-29" value="描画を行う" style="text;html=1;align=center;verticalAlign=middle;whiteSpace=wrap;rounded=0;" vertex="1" parent="WIyWlLk6GJQsqaUBKTNV-1">
          <mxGeometry x="660" y="280" width="100" height="30" as="geometry" />
        </mxCell>
      </root>
    </mxGraphModel>
  </diagram>
</mxfile>
